<svg xmlns="http://www.w3.org/2000/svg" width="40" height="40" viewBox="0 0 40 40">
  <defs>
    <style>
      .cls-1 {
        fill: #2aa9e0;
        fill-rule: evenodd;
        opacity: 0.3;
      }
    </style>
  </defs>
  <path id="Forma_1_копия_14" data-name="Forma 1 копия 14" class="cls-1" d="M2919,4027a20,20,0,1,1,20-20A20.014,20.014,0,0,1,2919,4027Zm0-37.18a17.18,17.18,0,1,0,17.18,17.18A17.2,17.2,0,0,0,2919,3989.82Zm4.61,27.16a1.39,1.39,0,0,1-1,.41,1.436,1.436,0,0,1-.99-0.41l-9.09-9.09a1.412,1.412,0,0,1,0-1.99l9.09-9.09a1.411,1.411,0,0,1,1.99,2l-8.09,8.08,8.09,8.09A1.418,1.418,0,0,1,2923.61,4016.98Z" transform="translate(-2899 -3987)"/>
</svg>
