<svg xmlns="http://www.w3.org/2000/svg" width="20" height="20" viewBox="0 0 20 20">
  <defs>
    <style>
      .cls-1 {
        fill: #fff;
        fill-rule: evenodd;
      }
    </style>
  </defs>
  <path id="Forma_1_копия_7" fill="#fff" data-name="Forma 1 копия 7" class="cls-1" d="M518,1506a10,10,0,1,0-10-10A10.011,10.011,0,0,0,518,1506Zm0-18.59a8.59,8.59,0,1,1-8.589,8.59A8.6,8.6,0,0,1,518,1487.41Zm-2.307,13.58a0.675,0.675,0,0,0,.5.2,0.7,0.7,0,0,0,.5-0.2l4.544-4.54a0.7,0.7,0,0,0,.206-0.5,0.68,0.68,0,0,0-.206-0.5l-4.544-4.55a0.717,0.717,0,0,0-1,0,0.709,0.709,0,0,0,0,1l4.045,4.05-4.045,4.04A0.709,0.709,0,0,0,515.693,1500.99Z" transform="translate(-508 -1486)"/>
</svg>
