<svg xmlns="http://www.w3.org/2000/svg" width="17" height="12"><path d="M14.92 0H2.08A2.008 2.008 0 0 0 0 1.928v8.143A2.009 2.009 0 0 0 2.08 12h12.84A2.009 2.009 0 0 0 17 10.071V1.93A2.011 2.011 0 0 0 14.92 0zm1.13 10.071a1.088 1.088 0 0 1-1.13 1.048H2.08a1.094 1.094 0 0 1-1.13-1.048V1.93A1.1 1.1 0 0 1 2.08.881h12.84a1.1 1.1 0 0 1 1.13 1.049v8.139zm-5.33-4.173l4.16-3.458a.418.418 0 0 0 .03-.622.5.5 0 0 0-.67-.034L8.51 6.558l-1.12-.927s-.01-.006-.01-.009a.649.649 0 0 0-.07-.062L2.75 1.782a.5.5 0 0 0-.67.036.419.419 0 0 0 .04.622l4.21 3.489-4.19 3.636a.42.42 0 0 0-.02.624.491.491 0 0 0 .35.14.5.5 0 0 0 .32-.117l4.25-3.69 1.16.955a.482.482 0 0 0 .31.111.512.512 0 0 0 .32-.114l1.18-.984 4.23 3.725a.487.487 0 0 0 .33.12.465.465 0 0 0 .34-.137.418.418 0 0 0-.01-.622z" fill="#2aa9e0" fill-rule="evenodd"/></svg>