<svg xmlns="http://www.w3.org/2000/svg" width="22" height="22" viewBox="0 0 22 22">
  <defs>
    <style>
      .cls-1 {
        fill: #fff;
        fill-rule: evenodd;
      }
    </style>
  </defs>
  <path id="Forma_1" data-name="Forma 1" class="cls-1" d="M924.785,4996H905.214a1.211,1.211,0,0,0-1.214,1.21v19.57a1.22,1.22,0,0,0,1.214,1.22H915.75v-8.52h-2.867v-3.32h2.867v-2.45a4,4,0,0,1,4.27-4.39,23.679,23.679,0,0,1,2.562.13v2.97h-1.759a1.379,1.379,0,0,0-1.644,1.62v2.12h3.289l-0.43,3.32h-2.859V5018h5.606a1.22,1.22,0,0,0,1.215-1.22v-19.57A1.211,1.211,0,0,0,924.785,4996Z" transform="translate(-904 -4996)"/>
</svg>
