<svg xmlns="http://www.w3.org/2000/svg" width="21" height="21" viewBox="0 0 21 21">
  <defs>
    <style>
      .cls-1 {
        fill: #fff;
        fill-rule: evenodd;
      }
    </style>
  </defs>
  <path id="Forma_1" data-name="Forma 1" class="cls-1" d="M1021.2,4998h-9.41a5.8,5.8,0,0,0-5.79,5.79v9.41a5.8,5.8,0,0,0,5.79,5.8h9.41a5.8,5.8,0,0,0,5.8-5.8v-9.41A5.8,5.8,0,0,0,1021.2,4998Zm3.94,15.2a3.948,3.948,0,0,1-3.94,3.94h-9.41a3.946,3.946,0,0,1-3.93-3.94v-9.41a3.943,3.943,0,0,1,3.93-3.93h9.41a3.946,3.946,0,0,1,3.94,3.93v9.41h0Zm-8.64-10.11a5.41,5.41,0,1,0,5.41,5.41A5.42,5.42,0,0,0,1016.5,5003.09Zm0,8.96a3.55,3.55,0,1,1,3.55-3.55A3.557,3.557,0,0,1,1016.5,5012.05Zm5.64-10.54a1.366,1.366,0,0,0-1.37,1.36,1.4,1.4,0,0,0,.4.97,1.413,1.413,0,0,0,.97.4,1.371,1.371,0,0,0,.96-0.4,1.353,1.353,0,0,0,.4-0.97A1.366,1.366,0,0,0,1022.14,5001.51Z" transform="translate(-1006 -4998)"/>
</svg>
