<svg xmlns="http://www.w3.org/2000/svg" width="112" height="33"><path d="M11.859 1.377A3.964 3.964 0 0 0 7.906 5.33v21.74c0 1.108-.87 1.977-1.977 1.977a1.957 1.957 0 0 1-1.976-1.976v-5.93H0v7.906A3.964 3.964 0 0 0 3.953 33h19.764a3.964 3.964 0 0 0 3.953-3.953V17.19H11.859V7.306c0-1.106.87-1.976 1.976-1.976 1.107 0 1.976.87 1.976 1.976v5.93h15.812V5.33a3.964 3.964 0 0 0-3.953-3.953z"/><g aria-label="Dental CLINIK" style="line-height:100%;text-align:start" font-weight="400" font-size="22.971" font-family="sans-serif" letter-spacing="0" word-spacing="0" stroke-width=".574"><path d="M52.96 9.767q0 2.333-1.065 4.183-1.066 1.84-2.692 2.827-1.223.74-2.681 1.032-1.458.291-3.455.291H37.18V1.4h6.057q2.041 0 3.522.348 1.48.336 2.49.964 1.727 1.055 2.714 2.85.998 1.783.998 4.206zm-4.453-.034q0-1.649-.605-2.815-.595-1.178-1.896-1.84-.662-.325-1.357-.437-.684-.124-2.075-.124h-1.088v10.454h1.088q1.536 0 2.254-.135.718-.145 1.402-.516 1.178-.673 1.728-1.794.55-1.133.55-2.793zM67.263 12.548H58.02q.09 1.48 1.122 2.266 1.043.785 3.062.785 1.279 0 2.479-.46 1.2-.46 1.895-.987h.45v3.242q-1.37.55-2.58.796-1.212.247-2.681.247-3.792 0-5.81-1.705-2.02-1.705-2.02-4.857 0-3.118 1.907-4.935 1.918-1.828 5.25-1.828 3.073 0 4.62 1.559 1.549 1.548 1.549 4.464zm-4.016-2.366q-.033-1.268-.628-1.907-.594-.64-1.85-.64-1.167 0-1.919.606-.751.606-.841 1.94zM81.28 18.1h-4.06v-6.247q0-.763-.078-1.514-.079-.763-.27-1.122-.224-.415-.661-.606-.426-.19-1.2-.19-.55 0-1.122.179-.56.18-1.222.572V18.1h-4.038V5.504h4.038v1.391q1.076-.841 2.063-1.29.999-.448 2.21-.448 2.042 0 3.186 1.189Q81.28 7.534 81.28 9.9zM92.21 17.988q-.65.169-1.379.258-.729.101-1.783.101-2.356 0-3.511-.953-1.144-.954-1.144-3.264V8.24h-1.66V5.504h1.66v-3.6h4.038v3.6h3.78v2.737h-3.78v4.464q0 .662.011 1.156.011.493.18.886.157.392.55.628.403.224 1.166.224.314 0 .818-.134.516-.135.718-.247h.337zM101.815 14.814v-2.625q-.82.068-1.773.191-.953.112-1.446.27-.606.19-.931.56-.314.359-.314.953 0 .393.067.64t.336.47q.258.225.617.337.36.101 1.122.101.606 0 1.222-.246.629-.247 1.1-.651zm0 1.952q-.326.246-.808.594-.482.348-.908.55-.595.269-1.234.392-.64.135-1.402.135-1.795 0-3.006-1.11-1.212-1.11-1.212-2.838 0-1.38.617-2.255t1.75-1.38q1.122-.504 2.782-.717 1.66-.213 3.443-.314v-.068q0-1.043-.852-1.435-.853-.404-2.513-.404-.998 0-2.131.359-1.133.347-1.626.538h-.37v-3.04q.639-.168 2.075-.392 1.446-.236 2.893-.236 3.444 0 4.97 1.066 1.536 1.054 1.536 3.32v8.57h-4.004zM111.451 18.1h-4.038V.648h4.038z" style="-inkscape-font-specification:'sans-serif Bold'" font-weight="700"/><path d="M42.674 22.199q-1.883 0-2.977 1.258-1.086 1.25-1.086 3.43 0 2.242 1.047 3.468 1.055 1.219 3 1.219 1.195 0 2.727-.43v1.164q-1.188.446-2.93.446-2.524 0-3.899-1.532-1.367-1.53-1.367-4.351 0-1.766.657-3.094.664-1.328 1.906-2.047 1.25-.719 2.937-.719 1.797 0 3.14.657l-.562 1.14q-1.296-.61-2.593-.61zM47.877 32.597V21.176h1.328v10.218h5.039v1.203zM56.19 32.597V21.176h1.327v11.421zM69.58 32.597h-1.516l-6.242-9.586h-.062q.125 1.688.125 3.094v6.492h-1.227V21.176h1.5l6.227 9.546h.062q-.016-.21-.07-1.351-.055-1.149-.04-1.64v-6.555h1.243zM72.72 32.597V21.176h1.329v11.421zM85.44 32.597h-1.563l-4.164-5.539-1.196 1.063v4.476H77.19V21.176h1.328v5.664l5.18-5.664h1.57l-4.593 4.96z" style="-inkscape-font-specification:'Open Sans'" font-size="16" font-family="Open Sans"/></g></svg>