<svg xmlns="http://www.w3.org/2000/svg" width="15" height="26" viewBox="0 0 15 26">
  <defs>
    <style>
      .cls-1 {
        fill: #fff;
        fill-rule: evenodd;
      }
    </style>
  </defs>
  <path id="Forma_1" data-name="Forma 1" class="cls-1" d="M885.271,5012.31a9.445,9.445,0,0,1-5.179-1.92,6.6,6.6,0,0,1-.546-0.47,1.564,1.564,0,0,1-.2-2.17,1.445,1.445,0,0,1,1.96-.46,2.6,2.6,0,0,1,.429.26,8.2,8.2,0,0,0,9.411.09,2.491,2.491,0,0,1,.917-0.49,1.42,1.42,0,0,1,1.648.68,1.5,1.5,0,0,1-.1,1.91,7.437,7.437,0,0,1-2.737,1.84,12.118,12.118,0,0,1-3.108.73c0.16,0.18.235,0.27,0.335,0.37,1.439,1.51,2.884,3.01,4.318,4.51a1.535,1.535,0,0,1,.322,1.75,1.686,1.686,0,0,1-1.6,1.04,1.528,1.528,0,0,1-1.012-.54c-1.086-1.13-2.192-2.25-3.256-3.41-0.309-.34-0.458-0.27-0.731.02-1.092,1.17-2.2,2.32-3.319,3.47a1.349,1.349,0,0,1-1.679.31,1.778,1.778,0,0,1-.981-1.63,1.671,1.671,0,0,1,.526-1.09q2.136-2.22,4.264-4.44C885.046,5012.57,885.134,5012.46,885.271,5012.31Zm1.18-5.15a6.585,6.585,0,1,1,6.361-6.5A6.458,6.458,0,0,1,886.451,5007.16Zm3.14-6.59a3.1,3.1,0,1,0-3.074,3.23A3.146,3.146,0,0,0,889.591,5000.57Z" transform="translate(-879 -4994)"/>
</svg>
