<svg xmlns="http://www.w3.org/2000/svg" width="17" height="17" viewBox="0 0 17 17">
  <defs>
    <style>
      .cls-1 {
        fill: #fff;
        fill-rule: evenodd;
      }
    </style>
  </defs>
  <path id="Shape_1_копия_2" fill="#fff" data-name="Shape 1 копия 2" class="cls-1" d="M857.442,9923.53a1.688,1.688,0,0,0-1.214-.56,1.712,1.712,0,0,0-1.229.56l-1.135,1.13c-0.094-.05-0.187-0.1-0.277-0.15a2.578,2.578,0,0,1-.356-0.19,12.173,12.173,0,0,1-2.957-2.69,7.208,7.208,0,0,1-.97-1.53c0.294-.27.567-0.55,0.833-0.82l0.3-.3a1.641,1.641,0,0,0,0-2.48l-0.981-.98c-0.111-.11-0.226-0.23-0.334-0.34-0.216-.23-0.442-0.46-0.676-0.67a1.681,1.681,0,0,0-1.2-.53,1.74,1.74,0,0,0-1.222.53s0,0-.007.01l-1.222,1.23a2.63,2.63,0,0,0-.78,1.67,6.3,6.3,0,0,0,.46,2.66,15.463,15.463,0,0,0,2.749,4.58,17.053,17.053,0,0,0,5.631,4.4,8.82,8.82,0,0,0,3.162.93,1.732,1.732,0,0,0,.226.01,2.719,2.719,0,0,0,2.074-.89,0.243,0.243,0,0,1,.014-0.02,7.644,7.644,0,0,1,.629-0.65c0.154-.15.312-0.3,0.467-0.46a1.791,1.791,0,0,0,.542-1.24,1.714,1.714,0,0,0-.553-1.23Zm1.287,3.78h0c-0.14.15-.284,0.28-0.439,0.43-0.233.23-.47,0.46-0.693,0.72a1.726,1.726,0,0,1-1.351.57h-0.165a7.735,7.735,0,0,1-2.8-.84,15.91,15.91,0,0,1-5.3-4.15,14.559,14.559,0,0,1-2.587-4.3,5.117,5.117,0,0,1-.4-2.25,1.637,1.637,0,0,1,.5-1.06l1.226-1.23a0.834,0.834,0,0,1,.546-0.25,0.791,0.791,0,0,1,.525.25s0.007,0.01.01,0.01c0.219,0.21.428,0.42,0.647,0.64,0.111,0.12.226,0.23,0.341,0.35l0.981,0.98a0.682,0.682,0,0,1,0,1.11c-0.1.11-.2,0.21-0.309,0.31-0.3.31-.589,0.6-0.9,0.88a0.108,0.108,0,0,0-.018.02,0.722,0.722,0,0,0-.186.81c0,0.01.007,0.02,0.01,0.03a7.761,7.761,0,0,0,1.161,1.89l0,0.01a13.21,13.21,0,0,0,3.19,2.9c0.148,0.09.3,0.17,0.442,0.24a2.578,2.578,0,0,1,.356.19,0.084,0.084,0,0,1,.043.02,0.792,0.792,0,0,0,.356.09,0.734,0.734,0,0,0,.546-0.25l1.229-1.22a0.822,0.822,0,0,1,.542-0.27,0.738,0.738,0,0,1,.518.26s0,0,.007.01l1.98,1.97A0.716,0.716,0,0,1,858.729,9927.31Zm-5.541-10.27a4.641,4.641,0,0,1,3.766,3.76,0.476,0.476,0,0,0,.477.4h0.083a0.492,0.492,0,0,0,.4-0.56,5.577,5.577,0,0,0-4.556-4.55A0.482,0.482,0,1,0,853.188,9917.04Zm7.8,3.46a9.176,9.176,0,0,0-7.5-7.49,0.478,0.478,0,0,0-.557.39,0.487,0.487,0,0,0,.4.56,8.2,8.2,0,0,1,6.705,6.69,0.486,0.486,0,0,0,.478.41c0.028,0,.053-0.01.082-0.01A0.474,0.474,0,0,0,860.992,9920.5Z" transform="translate(-844 -9913)"/>
</svg>
