<svg xmlns="http://www.w3.org/2000/svg" width="13" height="17"><path data-name="Shape 1 копия" d="M6.5 0A6.342 6.342 0 0 0 0 6.156c0 4.213 5.82 10.4 6.06 10.659a.617.617 0 0 0 .88 0C7.18 16.554 13 10.369 13 6.156A6.344 6.344 0 0 0 6.5 0zm0 15.6c-1.96-2.2-5.329-6.549-5.329-9.441a5.337 5.337 0 0 1 10.659 0c0 2.887-3.37 7.232-5.33 9.441zm0-12.538a3.1 3.1 0 1 0 3.27 3.1A3.192 3.192 0 0 0 6.5 3.057zm0 5.087a1.992 1.992 0 1 1 2.1-1.99 2.048 2.048 0 0 1-2.1 1.985z" fill="#2aa9e0" fill-rule="evenodd"/></svg>