<svg xmlns="http://www.w3.org/2000/svg" width="13" height="13" viewBox="0 0 13 13">
  <defs>
    <style>
      .cls-1 {
        fill: #2aa9e0;
        fill-rule: evenodd;
      }
    </style>
  </defs>
  <path id="Forma_1" data-name="Forma 1" class="cls-1" d="M295.5,332a6.5,6.5,0,1,0,6.5,6.5A6.507,6.507,0,0,0,295.5,332Zm0,11.929a5.429,5.429,0,1,1,5.429-5.43A5.435,5.435,0,0,1,295.5,343.927Zm0.535-5.642V334.6a0.535,0.535,0,1,0-1.07,0V338.5a0.53,0.53,0,0,0,.2.411c0.006,0.008.009,0.014,0.014,0.02l2.008,2.279a0.536,0.536,0,1,0,.8-0.708Z" transform="translate(-289 -332)"/>
</svg>
