<svg xmlns="http://www.w3.org/2000/svg" width="23" height="19" viewBox="0 0 23 19">
  <defs>
    <style>
      .cls-1 {
        fill: #fff;
        fill-rule: evenodd;
      }
    </style>
  </defs>
  <path id="Forma_1" data-name="Forma 1" class="cls-1" d="M957.366,4998.35a9.239,9.239,0,0,1-3,1.16,4.676,4.676,0,0,0-3.443-1.51,4.761,4.761,0,0,0-4.719,4.8,4.921,4.921,0,0,0,.122,1.09,13.305,13.305,0,0,1-9.725-5.02,4.87,4.87,0,0,0-.638,2.42,4.819,4.819,0,0,0,2.1,3.99,4.691,4.691,0,0,1-2.137-.6v0.06a4.779,4.779,0,0,0,3.784,4.7,4.628,4.628,0,0,1-1.243.17,4.36,4.36,0,0,1-.889-0.09,4.738,4.738,0,0,0,4.407,3.34,9.4,9.4,0,0,1-5.859,2.05,8.375,8.375,0,0,1-1.126-.07,13.206,13.206,0,0,0,7.233,2.16c8.679,0,13.424-7.31,13.424-13.65l-0.015-.62a9.708,9.708,0,0,0,2.358-2.48,9.166,9.166,0,0,1-2.709.75A4.786,4.786,0,0,0,957.366,4998.35Z" transform="translate(-935 -4998)"/>
</svg>
