<svg xmlns="http://www.w3.org/2000/svg" width="25" height="14" viewBox="0 0 25 14">
  <defs>
    <style>
      .cls-1 {
        fill: #fff;
        fill-rule: evenodd;
      }
    </style>
  </defs>
  <path id="Forma_1" data-name="Forma 1" class="cls-1" d="M868.866,5012.64c-0.03-.06-0.059-0.11-0.085-0.16a13,13,0,0,0-2.486-2.82l-0.025-.03-0.014-.01-0.013-.01H866.23a14.792,14.792,0,0,1-1.054-1.05,0.977,0.977,0,0,1-.182-1.04,9.776,9.776,0,0,1,1.171-1.67c0.356-.45.638-0.81,0.846-1.09,1.5-1.95,2.152-3.21,1.952-3.75l-0.077-.13a0.718,0.718,0,0,0-.4-0.21,1.866,1.866,0,0,0-.833-0.03l-3.748.02a0.469,0.469,0,0,0-.26.01,1.159,1.159,0,0,0-.169.04l-0.066.03-0.052.04a0.524,0.524,0,0,0-.143.13,0.948,0.948,0,0,0-.13.23,20.976,20.976,0,0,1-1.392,2.87c-0.321.53-.616,0.99-0.886,1.37a6.285,6.285,0,0,1-.676.86,4.891,4.891,0,0,1-.5.44,0.47,0.47,0,0,1-.338.14c-0.078-.02-0.152-0.03-0.222-0.05a0.9,0.9,0,0,1-.292-0.31,1.379,1.379,0,0,1-.15-0.5,5.132,5.132,0,0,1-.045-0.52c0-.14,0-0.35.006-0.61s0.013-.45.013-0.54q0-.48.02-1.05c0.013-.38.023-0.68,0.032-0.9s0.013-.46.013-0.71a2.957,2.957,0,0,0-.045-0.58,2.123,2.123,0,0,0-.137-0.41,0.673,0.673,0,0,0-.267-0.3,1.507,1.507,0,0,0-.435-0.18,9.159,9.159,0,0,0-1.758-.16,8.7,8.7,0,0,0-3.11.3,1.937,1.937,0,0,0-.5.39c-0.156.18-.178,0.29-0.065,0.3a1.616,1.616,0,0,1,1.106.55l0.078,0.16a2.292,2.292,0,0,1,.183.59,5.955,5.955,0,0,1,.117.93,9.876,9.876,0,0,1,0,1.6c-0.044.44-.085,0.78-0.124,1.03a1.951,1.951,0,0,1-.176.6,2.4,2.4,0,0,1-.156.28,0.212,0.212,0,0,1-.065.07,1.044,1.044,0,0,1-.351.06,0.832,0.832,0,0,1-.443-0.18,3.091,3.091,0,0,1-.54-0.49,6.434,6.434,0,0,1-.631-0.88,14.544,14.544,0,0,1-.729-1.32l-0.208-.38c-0.13-.23-0.308-0.58-0.534-1.04s-0.425-.89-0.6-1.32a0.829,0.829,0,0,0-.313-0.41l-0.065-.04a1.165,1.165,0,0,0-.208-0.11,2.725,2.725,0,0,0-.3-0.08l-3.566.03a0.922,0.922,0,0,0-.742.24l-0.053.08a0.391,0.391,0,0,0-.039.2,1.046,1.046,0,0,0,.079.35c0.52,1.2,1.086,2.36,1.7,3.47s1.143,2.02,1.594,2.7,0.911,1.32,1.38,1.93,0.779,0.99.93,1.16,0.271,0.3.358,0.38l0.326,0.31a7.572,7.572,0,0,0,.917.74q0.606,0.42,1.341.84a7.428,7.428,0,0,0,1.711.68,6.285,6.285,0,0,0,1.9.21h1.5a1.075,1.075,0,0,0,.69-0.28l0.052-.07a0.854,0.854,0,0,0,.1-0.23,1.324,1.324,0,0,0,.046-0.36,4.051,4.051,0,0,1,.084-0.98,2.542,2.542,0,0,1,.222-0.67,1.8,1.8,0,0,1,.28-0.38,1.081,1.081,0,0,1,.221-0.18c0.043-.02.078-0.04,0.1-0.05a0.836,0.836,0,0,1,.736.2,4.425,4.425,0,0,1,.794.74q0.37,0.45.891,0.99a5.965,5.965,0,0,0,.911.82l0.26,0.15a3.055,3.055,0,0,0,.677.29,1.576,1.576,0,0,0,.729.06l3.332-.05a1.6,1.6,0,0,0,.767-0.16,0.671,0.671,0,0,0,.326-0.35,1,1,0,0,0,.006-0.44A1.718,1.718,0,0,0,868.866,5012.64Z" transform="translate(-844 -5000)"/>
</svg>
